<svg width="64" height="38" viewBox="0 0 64 38" fill="none" xmlns="http://www.w3.org/2000/svg">
<path d="M64 36.5898C61.672 37.1818 60.232 36.6158 58.94 34.6758L49.752 21.9638L48.424 20.2038L37.694 34.7178C36.468 36.4638 35.182 37.2238 32.894 36.6058L46.634 18.1618L33.842 1.50177C36.042 1.07377 37.562 1.29177 38.912 3.26177L48.442 16.1318L58.042 3.33177C59.272 1.58577 60.594 0.921773 62.802 1.56577L57.842 8.14177L51.122 16.8918C50.322 17.8918 50.432 18.5758 51.168 19.5418L64 36.5898ZM0.016 17.8538L1.14 12.3258C4.2 1.38577 16.74 -3.16023 25.388 3.59977C30.442 7.57577 31.698 13.1998 31.448 19.4998H2.96C2.532 30.8398 10.694 37.6838 21.1 34.1918C24.75 32.9658 26.9 30.1078 27.976 26.5318C28.522 24.7398 29.426 24.4598 31.11 24.9718C30.25 29.4438 28.31 33.1798 24.21 35.5178C18.084 39.0178 9.34 37.8858 4.74 33.0218C2 30.1998 0.868 26.6238 0.36 22.7998C0.28 22.1678 0.12 21.5658 0 20.9598C0.0106667 19.9251 0.016 18.8904 0.016 17.8558V17.8538ZM3.012 17.0938H28.756C28.588 8.89377 23.482 3.06977 16.504 3.01977C8.844 2.95977 3.344 8.64577 3.012 17.0938Z" fill="white"/>
</svg>
