<svg width="25" height="25" viewBox="0 0 25 25" fill="none" xmlns="http://www.w3.org/2000/svg">
<mask id="mask0_160_7" style="mask-type:alpha" maskUnits="userSpaceOnUse" x="0" y="0" width="25" height="25">
<rect x="0.472412" y="0.154724" width="24" height="24" fill="#D9D9D9"/>
</mask>
<g mask="url(#mask0_160_7)">
<path d="M9.97241 15.6547L16.9724 11.1547L9.97241 6.65472V15.6547ZM8.47241 21.1547V19.1547H4.47241C3.92241 19.1547 3.45158 18.9589 3.05991 18.5672C2.66825 18.1756 2.47241 17.7047 2.47241 17.1547V5.15472C2.47241 4.60472 2.66825 4.13389 3.05991 3.74222C3.45158 3.35056 3.92241 3.15472 4.47241 3.15472H20.4724C21.0224 3.15472 21.4932 3.35056 21.8849 3.74222C22.2766 4.13389 22.4724 4.60472 22.4724 5.15472V17.1547C22.4724 17.7047 22.2766 18.1756 21.8849 18.5672C21.4932 18.9589 21.0224 19.1547 20.4724 19.1547H16.4724V21.1547H8.47241ZM4.47241 17.1547H20.4724V5.15472H4.47241V17.1547Z" fill="#1C1B1F"/>
</g>
</svg>
