<svg width="48" height="48" viewBox="0 0 48 48" fill="none" xmlns="http://www.w3.org/2000/svg">
<path d="M9 42C8.175 42 7.46875 41.7063 6.88125 41.1188C6.29375 40.5313 6 39.825 6 39V9C6 8.175 6.29375 7.46875 6.88125 6.88125C7.46875 6.29375 8.175 6 9 6H39C39.825 6 40.5313 6.29375 41.1188 6.88125C41.7063 7.46875 42 8.175 42 9V39C42 39.825 41.7063 40.5313 41.1188 41.1188C40.5313 41.7063 39.825 42 39 42H9ZM9 39H39V13H9V39ZM24.002 33.75C21.334 33.75 18.95 33.0308 16.85 31.5924C14.75 30.154 13.2167 28.2874 12.25 25.9924C13.2167 23.6975 14.7493 21.8333 16.848 20.4C18.9466 18.9667 21.3299 18.25 23.998 18.25C26.666 18.25 29.05 18.9692 31.15 20.4076C33.25 21.846 34.7833 23.7126 35.75 26.0076C34.7833 28.3025 33.2507 30.1667 31.1521 31.6C29.0534 33.0333 26.6701 33.75 24.002 33.75ZM24 31.25C25.9 31.25 27.6491 30.7862 29.2474 29.8587C30.8457 28.9312 32.0966 27.645 33 26C32.0966 24.355 30.8457 23.0688 29.2474 22.1413C27.6491 21.2138 25.9 20.75 24 20.75C22.1 20.75 20.3508 21.2138 18.7525 22.1413C17.1542 23.0688 15.9034 24.355 15 26C15.9034 27.645 17.1542 28.9312 18.7525 29.8587C20.3508 30.7862 22.1 31.25 24 31.25ZM24.0059 28.5C24.702 28.5 25.2917 28.2564 25.775 27.7691C26.2583 27.2819 26.5 26.6902 26.5 25.9941C26.5 25.298 26.2564 24.7083 25.7691 24.225C25.2819 23.7417 24.6902 23.5 23.9941 23.5C23.298 23.5 22.7083 23.7436 22.225 24.2309C21.7417 24.7181 21.5 25.3098 21.5 26.0059C21.5 26.702 21.7436 27.2917 22.2309 27.775C22.7181 28.2583 23.3098 28.5 24.0059 28.5Z" fill="white"/>
</svg>
